<svg width="30" height="30" viewBox="0 0 15 15" fill="none" xmlns="http://www.w3.org/2000/svg">
<path d="M0.494263 1.70959V7.33459C0.494263 7.66272 0.728638 7.89709 1.05676 7.89709H2.93176C3.23645 7.89709 3.49426 7.66272 3.49426 7.33459V1.70959C3.49426 1.40491 3.23645 1.14709 2.93176 1.14709H1.05676C0.728638 1.14709 0.494263 1.40491 0.494263 1.70959ZM1.43176 6.39709C1.43176 6.09241 1.66614 5.83459 1.99426 5.83459C2.29895 5.83459 2.55676 6.09241 2.55676 6.39709C2.55676 6.72522 2.29895 6.95959 1.99426 6.95959C1.66614 6.95959 1.43176 6.72522 1.43176 6.39709ZM7.80676 12.3971C8.36926 12.3971 9.49426 12.2096 9.49426 10.4987C9.49426 9.51428 8.88489 8.95178 8.69739 8.27209H11.088C11.8615 8.27209 12.4708 7.63928 12.4943 6.91272C12.4943 6.49084 12.3068 6.04553 12.0255 5.76428C12.2599 5.22522 12.213 4.45178 11.8146 3.91272C12.0021 3.30334 11.8146 2.55334 11.4161 2.15491C11.5333 1.73303 11.4865 1.38147 11.2755 1.10022C10.8068 0.420532 9.61145 0.397095 8.60364 0.397095H8.53333C7.40833 0.420532 6.49426 0.81897 5.74426 1.14709C5.36926 1.31116 4.87708 1.52209 4.50208 1.52209C4.36145 1.54553 4.24426 1.66272 4.24426 1.80334V6.81897C4.24426 6.91272 4.2677 6.98303 4.31458 7.02991C5.25208 7.94397 5.65051 8.90491 6.40051 9.67834C6.75208 10.0299 6.86926 10.5455 7.00989 11.0612C7.10364 11.483 7.31458 12.3971 7.80676 12.3971Z" fill="#797979"/>
</svg>
