<svg width="30" height="30" viewBox="0 0 30 30" fill="none" xmlns="http://www.w3.org/2000/svg">
<!-- <rect opacity="0.1" width="75" height="30" rx="15" fill="white"/> -->
<!-- <path d="M35.8679 18.8979H34.778V11.6733L32.5925 12.4761V11.4917L35.6979 10.3257H35.8679V18.8979ZM44.6335 18.8979H39.0436V18.1187L41.9968 14.8374C42.4343 14.3413 42.735 13.939 42.8991 13.6304C43.0671 13.3179 43.1511 12.9956 43.1511 12.6636C43.1511 12.2183 43.0163 11.853 42.7468 11.5679C42.4772 11.2827 42.1179 11.1401 41.6686 11.1401C41.1296 11.1401 40.7097 11.2944 40.4089 11.603C40.112 11.9077 39.9636 12.3335 39.9636 12.8804H38.8796C38.8796 12.0952 39.1315 11.4604 39.6354 10.9761C40.1432 10.4917 40.821 10.2495 41.6686 10.2495C42.4616 10.2495 43.0886 10.4585 43.5495 10.8765C44.0104 11.2905 44.2409 11.8433 44.2409 12.5347C44.2409 13.3745 43.7057 14.3745 42.6354 15.5347L40.3503 18.0132H44.6335V18.8979ZM47.3581 14.105H48.1725C48.6843 14.0972 49.0866 13.9624 49.3796 13.7007C49.6725 13.439 49.819 13.0854 49.819 12.6401C49.819 11.6401 49.321 11.1401 48.3249 11.1401C47.8561 11.1401 47.4811 11.2749 47.1999 11.5444C46.9225 11.8101 46.7839 12.1636 46.7839 12.605H45.6999C45.6999 11.9292 45.946 11.3687 46.4382 10.9233C46.9343 10.4741 47.5632 10.2495 48.3249 10.2495C49.1296 10.2495 49.7604 10.4624 50.2175 10.8882C50.6745 11.314 50.903 11.9058 50.903 12.6636C50.903 13.0347 50.7819 13.394 50.5397 13.7417C50.3015 14.0894 49.9753 14.3491 49.5612 14.521C50.03 14.6694 50.3913 14.9155 50.6452 15.2593C50.903 15.603 51.0319 16.0229 51.0319 16.519C51.0319 17.2847 50.7819 17.8921 50.2819 18.3413C49.7819 18.7905 49.1315 19.0151 48.3307 19.0151C47.53 19.0151 46.8776 18.7983 46.3737 18.3647C45.8737 17.9312 45.6237 17.3589 45.6237 16.6479H46.7136C46.7136 17.0972 46.86 17.4565 47.153 17.7261C47.446 17.9956 47.8386 18.1304 48.3307 18.1304C48.8542 18.1304 49.2546 17.9937 49.5319 17.7202C49.8093 17.4468 49.9479 17.0542 49.9479 16.5425C49.9479 16.0464 49.7956 15.6655 49.4909 15.3999C49.1862 15.1343 48.7468 14.9976 48.1725 14.9897H47.3581V14.105ZM54.4011 15.9624L53.7214 16.6714V18.8979H52.6374V9.89795H53.7214V15.3413L54.3015 14.644L56.2761 12.5581H57.5944L55.1276 15.2065L57.8815 18.8979H56.61L54.4011 15.9624Z" fill="white"/> -->
<path d="M15.0339 14.6479H13.1589C12.8307 14.6479 12.5964 14.9058 12.5964 15.2104V20.8354C12.5964 21.1636 12.8307 21.3979 13.1589 21.3979H15.0339C15.3386 21.3979 15.5964 21.1636 15.5964 20.8354V15.2104C15.5964 14.9058 15.3386 14.6479 15.0339 14.6479ZM14.0964 20.4604C13.7682 20.4604 13.5339 20.2261 13.5339 19.8979C13.5339 19.5933 13.7682 19.3354 14.0964 19.3354C14.4011 19.3354 14.6589 19.5933 14.6589 19.8979C14.6589 20.2261 14.4011 20.4604 14.0964 20.4604ZM21.5964 11.3198C21.5964 9.58545 20.4714 9.39795 19.9089 9.39795C19.4167 9.39795 19.2057 10.3354 19.112 10.7573C18.9714 11.2729 18.8542 11.7886 18.5026 12.1401C17.7526 12.9136 17.3542 13.8745 16.4167 14.7886C16.3698 14.8589 16.3464 14.9292 16.3464 14.9995V20.0151C16.3464 20.1558 16.4636 20.2729 16.6042 20.2964C16.9792 20.2964 17.4714 20.5073 17.8464 20.6714C18.5964 20.9995 19.5104 21.3979 20.6354 21.3979H20.7057C21.7136 21.3979 22.9089 21.3979 23.3776 20.7183C23.5886 20.437 23.6354 20.0854 23.5182 19.6636C23.9167 19.2651 24.1042 18.5151 23.9167 17.9058C24.3151 17.3667 24.362 16.5933 24.1276 16.0542C24.4089 15.7729 24.5964 15.3276 24.5729 14.9058C24.5729 14.1792 23.9636 13.5229 23.1901 13.5229H20.7995C20.987 12.8667 21.5964 12.3042 21.5964 11.3198Z" fill="#797979"/>
</svg>
